<svg width="51" height="50" viewBox="0 0 51 50" fill="none" xmlns="http://www.w3.org/2000/svg">
<g filter="url(#filter0_d_964_18511)">
<g clip-path="url(#clip0_964_18511)">
<path d="M27.3222 38.0898H23.6786C23.5162 38.0898 23.3605 38.0264 23.2457 37.9135C23.1309 37.8007 23.0664 37.6477 23.0664 37.4881V8.42925C23.0664 7.79482 23.3228 7.18636 23.7793 6.73775C24.2358 6.28914 24.8549 6.03711 25.5004 6.03711C26.1459 6.03711 26.765 6.28914 27.2215 6.73775C27.6779 7.18636 27.9344 7.79482 27.9344 8.42925V37.4887C27.9342 37.6482 27.8696 37.8011 27.7549 37.9137C27.6401 38.0265 27.4845 38.0898 27.3222 38.0898ZM24.2907 36.8865H26.71V8.42925C26.71 8.11395 26.5826 7.81156 26.3557 7.58861C26.1289 7.36565 25.8212 7.2404 25.5004 7.2404C25.1796 7.2404 24.8719 7.36565 24.645 7.58861C24.4182 7.81156 24.2907 8.11395 24.2907 8.42925V36.8865Z" fill="#295C7A"/>
<path d="M10.7464 14.103H8.64486C8.14624 14.0942 7.67107 13.8934 7.32162 13.5437C6.97217 13.194 6.77637 12.7235 6.77637 12.2334C6.77637 11.7433 6.97217 11.2727 7.32162 10.9231C7.67107 10.5734 8.14624 10.3726 8.64486 10.3638H10.4483C10.6107 10.3638 10.7664 10.4272 10.8812 10.54C10.996 10.6528 11.0605 10.8058 11.0605 10.9654C11.0605 11.125 10.996 11.278 10.8812 11.3908C10.7664 11.5037 10.6107 11.5671 10.4483 11.5671H8.64486C8.46857 11.5723 8.30129 11.6448 8.17847 11.7691C8.05564 11.8935 7.98695 12.06 7.98695 12.2334C7.98695 12.4067 8.05564 12.5732 8.17847 12.6976C8.30129 12.822 8.46857 12.8945 8.64486 12.8997H10.7464C10.9088 12.8997 11.0645 12.9631 11.1793 13.0759C11.2941 13.1888 11.3586 13.3418 11.3586 13.5013C11.3586 13.6609 11.2941 13.8139 11.1793 13.9268C11.0645 14.0396 10.9088 14.103 10.7464 14.103Z" fill="#295C7A"/>
<path d="M23.6785 14.103H14.4501C14.2877 14.103 14.132 14.0396 14.0172 13.9268C13.9024 13.8139 13.8379 13.6609 13.8379 13.5013C13.8379 13.3418 13.9024 13.1888 14.0172 13.0759C14.132 12.9631 14.2877 12.8997 14.4501 12.8997H23.0663V11.5671H14.7476C14.5852 11.5671 14.4295 11.5037 14.3147 11.3908C14.1999 11.278 14.1354 11.125 14.1354 10.9654C14.1354 10.8058 14.1999 10.6528 14.3147 10.54C14.4295 10.4272 14.5852 10.3638 14.7476 10.3638H23.6785C23.8408 10.3638 23.9966 10.4272 24.1114 10.54C24.2262 10.6528 24.2907 10.8058 24.2907 10.9654V13.5013C24.2907 13.6609 24.2262 13.8139 24.1114 13.9268C23.9966 14.0396 23.8408 14.103 23.6785 14.103Z" fill="#295C7A"/>
<path d="M36.4171 14.103H27.3221C27.1598 14.103 27.0041 14.0396 26.8893 13.9268C26.7745 13.8139 26.71 13.6609 26.71 13.5013V10.9654C26.71 10.8058 26.7745 10.6528 26.8893 10.54C27.0041 10.4272 27.1598 10.3638 27.3221 10.3638H36.1196C36.282 10.3638 36.4377 10.4272 36.5525 10.54C36.6673 10.6528 36.7318 10.8058 36.7318 10.9654C36.7318 11.125 36.6673 11.278 36.5525 11.3908C36.4377 11.5037 36.282 11.5671 36.1196 11.5671H27.9343V12.8997H36.4171C36.5795 12.8997 36.7352 12.9631 36.85 13.0759C36.9648 13.1888 37.0293 13.3418 37.0293 13.5013C37.0293 13.6609 36.9648 13.8139 36.85 13.9268C36.7352 14.0396 36.5795 14.103 36.4171 14.103Z" fill="#295C7A"/>
<path d="M42.3492 14.103H40.2538C40.0914 14.103 39.9357 14.0396 39.8209 13.9268C39.7061 13.8139 39.6416 13.6609 39.6416 13.5013C39.6416 13.3418 39.7061 13.1888 39.8209 13.0759C39.9357 12.9631 40.0914 12.8997 40.2538 12.8997H42.3492C42.5255 12.8945 42.6928 12.822 42.8156 12.6976C42.9384 12.5732 43.0071 12.4067 43.0071 12.2334C43.0071 12.06 42.9384 11.8935 42.8156 11.7691C42.6928 11.6448 42.5255 11.5723 42.3492 11.5671H40.5556C40.3932 11.5671 40.2375 11.5037 40.1227 11.3908C40.0079 11.278 39.9434 11.125 39.9434 10.9654C39.9434 10.8058 40.0079 10.6528 40.1227 10.54C40.2375 10.4272 40.3932 10.3638 40.5556 10.3638H42.3492C42.8478 10.3726 43.323 10.5734 43.6725 10.9231C44.0219 11.2727 44.2177 11.7433 44.2177 12.2334C44.2177 12.7235 44.0219 13.194 43.6725 13.5437C43.323 13.8934 42.8478 14.0942 42.3492 14.103Z" fill="#295C7A"/>
<path d="M33.2528 41.9618H17.7466C17.6537 41.9617 17.562 41.9409 17.4785 41.9008C17.395 41.8608 17.3218 41.8026 17.2646 41.7306C17.2074 41.6587 17.1676 41.5749 17.1482 41.4856C17.1288 41.3962 17.1304 41.3038 17.1528 41.2151C17.4052 40.0253 18.0552 38.9526 18.9994 38.1676C19.9437 37.3827 21.1278 36.9306 22.3636 36.8833H28.6359C29.8716 36.9306 31.0558 37.3827 32 38.1676C32.9442 38.9526 33.5942 40.0253 33.8466 41.2151C33.869 41.3038 33.8706 41.3962 33.8512 41.4856C33.8318 41.5749 33.792 41.6587 33.7348 41.7306C33.6776 41.8026 33.6045 41.8608 33.5209 41.9008C33.4374 41.9409 33.3457 41.9617 33.2528 41.9618ZM18.5932 40.7585H32.4062C32.1148 39.9983 31.6016 39.3395 30.9309 38.8648C30.2602 38.39 29.4618 38.1203 28.6359 38.0896H22.3636C21.5376 38.1203 20.7393 38.39 20.0685 38.8648C19.3978 39.3395 18.8846 39.9983 18.5932 40.7585Z" fill="#295C7A"/>
<path d="M34.9114 41.9621H16.0897C15.9273 41.9621 15.7716 41.8987 15.6568 41.7859C15.542 41.673 15.4775 41.52 15.4775 41.3604C15.4775 41.2009 15.542 41.0478 15.6568 40.935C15.7716 40.8222 15.9273 40.7588 16.0897 40.7588H34.9114C35.0738 40.7588 35.2295 40.8222 35.3443 40.935C35.4591 41.0478 35.5236 41.2009 35.5236 41.3604C35.5236 41.52 35.4591 41.673 35.3443 41.7859C35.2295 41.8987 35.0738 41.9621 34.9114 41.9621Z" fill="#295C7A"/>
<path d="M46.3135 29.1882H30.4944C30.392 29.1883 30.2911 29.1631 30.2011 29.1149C30.1111 29.0667 30.0349 28.9971 29.9794 28.9124C29.9239 28.8278 29.8909 28.7307 29.8835 28.6303C29.876 28.5298 29.8943 28.4292 29.9368 28.3375L36.6584 13.7933C36.6915 13.7212 36.7387 13.6562 36.7974 13.602C36.8561 13.5478 36.9252 13.5055 37.0005 13.4776C37.0759 13.4497 37.1561 13.4367 37.2366 13.4393C37.3171 13.4419 37.3962 13.4601 37.4696 13.4928C37.5429 13.5255 37.6089 13.5722 37.6639 13.63C37.7188 13.6879 37.7617 13.7558 37.7899 13.8299C37.818 13.9041 37.8311 13.983 37.8282 14.0621C37.8253 14.1412 37.8066 14.2189 37.7731 14.2909L31.4445 27.9849H45.3609L39.0379 14.2909C39.0047 14.2189 38.9862 14.1412 38.9836 14.0622C38.9809 13.9832 38.9941 13.9045 39.0224 13.8305C39.0507 13.7566 39.0936 13.6888 39.1486 13.6311C39.2035 13.5734 39.2695 13.5269 39.3427 13.4943C39.416 13.4617 39.495 13.4435 39.5754 13.4409C39.6558 13.4383 39.7359 13.4513 39.8111 13.4791C39.8864 13.507 39.9553 13.5491 40.014 13.6031C40.0727 13.6571 40.12 13.722 40.1532 13.7939L46.8681 28.3381C46.9103 28.4295 46.9285 28.5299 46.9212 28.63C46.9138 28.7301 46.8811 28.8268 46.8259 28.9113C46.7708 28.9958 46.695 29.0654 46.6055 29.1138C46.516 29.1622 46.4156 29.1877 46.3135 29.1882Z" fill="#295C7A"/>
<path d="M38.4668 36.8625H38.3394C33.4378 36.8625 29.8799 33.3826 29.8799 28.5875C29.8799 28.4279 29.9444 28.2749 30.0592 28.1621C30.174 28.0492 30.3297 27.9858 30.492 27.9858H46.3135C46.4759 27.9858 46.6316 28.0492 46.7464 28.1621C46.8612 28.2749 46.9257 28.4279 46.9257 28.5875C46.9257 33.3856 43.3678 36.8625 38.4668 36.8625ZM31.1256 29.1891C31.3987 33.0288 34.2875 35.6592 38.3394 35.6592H38.4668C42.5181 35.6592 45.4075 33.0288 45.6799 29.1891H31.1256Z" fill="#295C7A"/>
<path d="M38.4036 14.9608C37.8083 14.9609 37.2264 14.7875 36.7314 14.4626C36.2364 14.1376 35.8506 13.6757 35.6228 13.1352C35.3949 12.5948 35.3353 12 35.4514 11.4262C35.5674 10.8524 35.8541 10.3254 36.275 9.9117C36.6959 9.49802 37.2322 9.21632 37.816 9.10221C38.3998 8.98811 39.005 9.04673 39.5549 9.27067C40.1048 9.4946 40.5748 9.87379 40.9055 10.3603C41.2361 10.8468 41.4125 11.4187 41.4124 12.0037C41.4114 12.7877 41.0941 13.5393 40.53 14.0936C39.966 14.648 39.2013 14.9598 38.4036 14.9608ZM38.4036 10.2493C38.0505 10.2492 37.7053 10.352 37.4117 10.5447C37.118 10.7374 36.8891 11.0113 36.7539 11.3319C36.6187 11.6525 36.5833 12.0052 36.6521 12.3456C36.7209 12.686 36.8909 12.9986 37.1405 13.244C37.3901 13.4895 37.7082 13.6566 38.0545 13.7243C38.4008 13.7921 38.7597 13.7574 39.0859 13.6246C39.4122 13.4918 39.691 13.267 39.8872 12.9785C40.0833 12.6899 40.188 12.3507 40.188 12.0037C40.1876 11.5387 39.9994 11.0928 39.6649 10.7639C39.3304 10.435 38.8768 10.2499 38.4036 10.2493Z" fill="#295C7A"/>
<path d="M20.5046 29.1884H4.68622C4.58379 29.1883 4.48301 29.1631 4.3931 29.1148C4.3032 29.0666 4.22704 28.997 4.17161 28.9123C4.11618 28.8277 4.08325 28.7307 4.07583 28.6303C4.06841 28.5299 4.08674 28.4293 4.12914 28.3376L10.852 13.7935C10.9191 13.6481 11.0422 13.5349 11.1943 13.4788C11.3464 13.4227 11.5149 13.4282 11.6628 13.4942C11.8107 13.5602 11.9259 13.6812 11.983 13.8306C12.0401 13.9801 12.0345 14.1457 11.9673 14.2911L5.63875 27.9851H19.5552L13.2321 14.2911C13.1969 14.2188 13.1768 14.1405 13.1728 14.0605C13.1689 13.9806 13.1812 13.9006 13.2091 13.8254C13.2369 13.7502 13.2798 13.6812 13.3352 13.6225C13.3905 13.5638 13.4572 13.5165 13.5314 13.4834C13.6056 13.4504 13.6857 13.4322 13.7671 13.4299C13.8485 13.4277 13.9296 13.4414 14.0055 13.4704C14.0815 13.4993 14.1508 13.5428 14.2094 13.5984C14.268 13.654 14.3147 13.7205 14.3468 13.7941L21.0623 28.3382C21.1046 28.4299 21.1228 28.5305 21.1153 28.6309C21.1078 28.7312 21.0748 28.8282 21.0193 28.9127C20.9638 28.9973 20.8876 29.0669 20.7977 29.115C20.7078 29.1632 20.607 29.1884 20.5046 29.1884Z" fill="#295C7A"/>
<path d="M12.6605 36.8625H12.5332C7.63214 36.8625 4.07422 33.3856 4.07422 28.5875C4.07422 28.4279 4.13871 28.2749 4.25352 28.1621C4.36832 28.0492 4.52403 27.9858 4.68639 27.9858H20.5079C20.6702 27.9858 20.8259 28.0492 20.9407 28.1621C21.0555 28.2749 21.12 28.4279 21.12 28.5875C21.12 33.3856 17.5621 36.8625 12.6605 36.8625ZM5.31998 29.1891C5.59239 33.0288 8.48183 35.6592 12.5332 35.6592H12.6605C16.7124 35.6592 19.6012 33.0288 19.8743 29.1891H5.31998Z" fill="#295C7A"/>
<path d="M12.5973 14.9608C12.0021 14.9608 11.4202 14.7873 10.9253 14.4623C10.4304 14.1373 10.0447 13.6753 9.81691 13.1348C9.58915 12.5943 9.52959 11.9996 9.64576 11.4259C9.76193 10.8521 10.0486 10.3251 10.4695 9.91149C10.8905 9.49787 11.4268 9.21622 12.0106 9.10217C12.5944 8.98811 13.1995 9.04677 13.7494 9.27072C14.2993 9.49468 14.7692 9.87386 15.0998 10.3603C15.4305 10.8468 15.6068 11.4187 15.6067 12.0037C15.6058 12.7878 15.2884 13.5395 14.7242 14.0938C14.16 14.6482 13.3951 14.96 12.5973 14.9608ZM12.5973 10.2493C12.2443 10.2493 11.8991 10.3522 11.6056 10.545C11.312 10.7377 11.0832 11.0117 10.9481 11.3323C10.813 11.6529 10.7776 12.0056 10.8465 12.346C10.9154 12.6863 11.0854 12.9989 11.3351 13.2442C11.5847 13.4896 11.9028 13.6567 12.2491 13.7244C12.5953 13.7921 12.9542 13.7573 13.2804 13.6246C13.6066 13.4918 13.8854 13.2669 14.0815 12.9784C14.2777 12.6899 14.3824 12.3507 14.3824 12.0037C14.3819 11.5386 14.1937 11.0926 13.859 10.7637C13.5244 10.4348 13.0706 10.2498 12.5973 10.2493Z" fill="#295C7A"/>
</g>
</g>
<defs>
<filter id="filter0_d_964_18511" x="-3" y="0" width="56" height="56" filterUnits="userSpaceOnUse" color-interpolation-filters="sRGB">
<feFlood flood-opacity="0" result="BackgroundImageFix"/>
<feColorMatrix in="SourceAlpha" type="matrix" values="0 0 0 0 0 0 0 0 0 0 0 0 0 0 0 0 0 0 127 0" result="hardAlpha"/>
<feOffset dy="4"/>
<feGaussianBlur stdDeviation="2"/>
<feComposite in2="hardAlpha" operator="out"/>
<feColorMatrix type="matrix" values="0 0 0 0 0 0 0 0 0 0 0 0 0 0 0 0 0 0 0.25 0"/>
<feBlend mode="normal" in2="BackgroundImageFix" result="effect1_dropShadow_964_18511"/>
<feBlend mode="normal" in="SourceGraphic" in2="effect1_dropShadow_964_18511" result="shape"/>
</filter>
<clipPath id="clip0_964_18511">
<rect width="43" height="36" fill="white" transform="translate(4 6)"/>
</clipPath>
</defs>
</svg>
